<svg width="1280" height="640" viewBox="0 0 1280 640" fill="none" xmlns="http://www.w3.org/2000/svg">
<g clip-path="url(#clip0_42_145)">
<rect width="1280" height="640" fill="white"/>
<rect x="-6" width="1286" height="640" fill="black"/>
<path d="M552.24 370.336V388.96C552.24 393.952 551.045 397.771 548.656 400.416C546.267 403.019 542.747 404.32 538.096 404.32C535.152 404.32 532.677 403.765 530.672 402.656C528.709 401.504 527.195 399.691 526.128 397.216C525.061 399.648 523.547 401.44 521.584 402.592C519.621 403.744 517.147 404.32 514.16 404.32C509.509 404.32 505.989 403.019 503.6 400.416C501.211 397.771 500.016 393.952 500.016 388.96V370.336H504.56V388.576C504.56 392.544 505.328 395.488 506.864 397.408C508.4 399.285 510.832 400.224 514.16 400.224C517.445 400.224 519.877 399.264 521.456 397.344C523.077 395.424 523.888 392.459 523.888 388.448V370.336H528.432V388.448C528.432 392.459 529.221 395.424 530.8 397.344C532.379 399.264 534.832 400.224 538.16 400.224C541.403 400.224 543.792 399.285 545.328 397.408C546.907 395.488 547.696 392.544 547.696 388.576V370.336H552.24ZM578.346 404.32C575.103 404.32 572.181 403.595 569.578 402.144C566.975 400.651 564.927 398.603 563.434 396C561.941 393.397 561.194 390.453 561.194 387.168C561.194 383.883 561.941 380.939 563.434 378.336C564.927 375.733 566.975 373.707 569.578 372.256C572.181 370.805 575.103 370.08 578.346 370.08C581.589 370.08 584.511 370.805 587.114 372.256C589.717 373.707 591.743 375.733 593.194 378.336C594.687 380.939 595.434 383.883 595.434 387.168C595.434 390.453 594.687 393.397 593.194 396C591.743 398.603 589.717 400.651 587.114 402.144C584.511 403.595 581.589 404.32 578.346 404.32ZM578.346 400.288C580.735 400.288 582.869 399.755 584.746 398.688C586.666 397.579 588.159 396.021 589.226 394.016C590.293 392.011 590.826 389.728 590.826 387.168C590.826 384.608 590.293 382.325 589.226 380.32C588.159 378.315 586.666 376.779 584.746 375.712C582.869 374.603 580.735 374.048 578.346 374.048C575.957 374.048 573.802 374.603 571.882 375.712C570.005 376.779 568.511 378.315 567.402 380.32C566.335 382.325 565.802 384.608 565.802 387.168C565.802 389.728 566.335 392.011 567.402 394.016C568.511 396.021 570.005 397.579 571.882 398.688C573.802 399.755 575.957 400.288 578.346 400.288ZM618.471 404.32C615.228 404.32 612.306 403.595 609.703 402.144C607.1 400.651 605.052 398.603 603.559 396C602.066 393.397 601.319 390.453 601.319 387.168C601.319 383.883 602.066 380.939 603.559 378.336C605.052 375.733 607.1 373.707 609.703 372.256C612.306 370.805 615.228 370.08 618.471 370.08C621.714 370.08 624.636 370.805 627.239 372.256C629.842 373.707 631.868 375.733 633.319 378.336C634.812 380.939 635.559 383.883 635.559 387.168C635.559 390.453 634.812 393.397 633.319 396C631.868 398.603 629.842 400.651 627.239 402.144C624.636 403.595 621.714 404.32 618.471 404.32ZM618.471 400.288C620.86 400.288 622.994 399.755 624.871 398.688C626.791 397.579 628.284 396.021 629.351 394.016C630.418 392.011 630.951 389.728 630.951 387.168C630.951 384.608 630.418 382.325 629.351 380.32C628.284 378.315 626.791 376.779 624.871 375.712C622.994 374.603 620.86 374.048 618.471 374.048C616.082 374.048 613.927 374.603 612.007 375.712C610.13 376.779 608.636 378.315 607.527 380.32C606.46 382.325 605.927 384.608 605.927 387.168C605.927 389.728 606.46 392.011 607.527 394.016C608.636 396.021 610.13 397.579 612.007 398.688C613.927 399.755 616.082 400.288 618.471 400.288ZM657.316 387.104L649.38 394.4V404H644.836V356.512H649.38V388.704L669.476 370.336H675.108L660.708 384.096L676.452 404H670.884L657.316 387.104ZM700.426 370.08C704.65 370.08 707.999 371.317 710.474 373.792C712.991 376.224 714.25 379.787 714.25 384.48V404H709.706V384.928C709.706 381.429 708.831 378.763 707.082 376.928C705.332 375.093 702.836 374.176 699.594 374.176C695.967 374.176 693.087 375.264 690.954 377.44C688.863 379.573 687.818 382.539 687.818 386.336V404H683.274V356.512H687.818V376.224C689.055 374.261 690.762 372.747 692.938 371.68C695.114 370.613 697.61 370.08 700.426 370.08ZM757.431 370.336V416.416H752.887V397.664C751.479 399.84 749.666 401.504 747.447 402.656C745.271 403.765 742.818 404.32 740.087 404.32C736.887 404.32 734.007 403.616 731.447 402.208C728.93 400.757 726.946 398.731 725.495 396.128C724.044 393.525 723.319 390.539 723.319 387.168C723.319 383.84 724.044 380.875 725.495 378.272C726.946 375.669 728.951 373.664 731.511 372.256C734.071 370.805 736.93 370.08 740.087 370.08C742.903 370.08 745.42 370.677 747.639 371.872C749.9 373.067 751.714 374.773 753.079 376.992V370.336H757.431ZM740.471 400.288C742.818 400.288 744.93 399.755 746.807 398.688C748.727 397.579 750.22 396.021 751.287 394.016C752.396 392.011 752.951 389.728 752.951 387.168C752.951 384.608 752.396 382.347 751.287 380.384C750.22 378.379 748.727 376.821 746.807 375.712C744.93 374.603 742.818 374.048 740.471 374.048C738.082 374.048 735.927 374.603 734.007 375.712C732.13 376.821 730.636 378.379 729.527 380.384C728.46 382.347 727.927 384.608 727.927 387.168C727.927 389.728 728.46 392.011 729.527 394.016C730.636 396.021 732.13 397.579 734.007 398.688C735.927 399.755 738.082 400.288 740.471 400.288Z" fill="white"/>
<path fill-rule="evenodd" clip-rule="evenodd" d="M658.333 236C673.061 236 685 247.939 685 262.667V321.333C685 336.061 673.061 348 658.333 348H599.667C584.939 348 573 336.061 573 321.333V262.667C573 247.939 584.939 236 599.667 236H658.333ZM585.711 264.889V302.667C585.711 310.904 587.726 317.126 591.756 321.333C595.845 325.541 601.622 327.645 609.089 327.645C613.948 327.645 618.096 326.726 621.533 324.889C624.97 322.993 627.548 320.266 629.266 316.711C630.926 320.207 633.474 322.904 636.911 324.8C640.407 326.696 644.615 327.645 649.533 327.645C656.941 327.645 662.659 325.541 666.689 321.333C670.778 317.126 672.822 310.904 672.822 302.667V264.889H666.333V302.4C666.333 308.978 664.882 313.867 661.978 317.067C659.074 320.208 654.926 321.778 649.533 321.778C644.082 321.778 639.874 320.208 636.911 317.067C634.007 313.926 632.556 309.037 632.556 302.4V264.889H626.067V302.4C626.067 308.978 624.585 313.867 621.622 317.067C618.659 320.208 614.482 321.778 609.089 321.778C597.889 321.778 592.289 315.319 592.289 302.4V264.889H585.711Z" fill="white"/>
</g>
<defs>
<clipPath id="clip0_42_145">
<rect width="1280" height="640" fill="white"/>
</clipPath>
</defs>
</svg>
